<svg width="42" height="42" viewBox="0 0 42 42" fill="none" xmlns="http://www.w3.org/2000/svg">
<g id="abstract_1552985 1">
<path id="Vector" d="M22.3999 4.20001V7.01065C29.4769 7.71625 34.9999 13.7101 34.9999 21C34.9999 28.2887 29.4769 34.2821 22.3999 34.9877V37.8C31.0229 37.0852 37.8 29.8419 37.8 21C37.8 12.1569 31.0229 4.91653 22.3999 4.20001ZM19.6002 34.9877C12.5261 34.2821 7.00015 28.2887 7.00015 21C7.00015 13.7105 12.5261 7.71625 19.6002 7.01065V4.20001C10.9788 4.91653 4.20001 12.1569 4.20001 21C4.20001 29.8419 10.9788 37.0852 19.6002 37.8V34.9877Z" fill="black"/>
<path id="Vector_2" d="M12.726 19.6001C13.393 15.6282 16.8382 12.6 21 12.6C25.1618 12.6 28.607 15.6282 29.274 19.6001H32.1027C31.4139 14.0767 26.7124 9.79987 21 9.79987C15.2905 9.79987 10.5874 14.0767 9.89688 19.6001H12.726ZM29.274 22.3999C28.607 26.3701 25.1618 29.4 21 29.4C16.8382 29.4 13.393 26.3701 12.726 22.3999H9.8973C10.5874 27.9233 15.2905 32.2001 21 32.2001C26.7124 32.2001 31.4139 27.9233 32.1031 22.3999H29.274Z" fill="black"/>
<path id="Vector_3" d="M21 15.4001C17.9075 15.4001 15.4001 17.9075 15.4001 21C15.4001 24.0925 17.9075 26.5999 21 26.5999C24.0937 26.5999 26.5999 24.0925 26.5999 21C26.5999 17.9075 24.0937 15.4001 21 15.4001ZM21 23.8001C20.2574 23.8001 19.5451 23.5051 19.02 22.98C18.4949 22.4549 18.1999 21.7427 18.1999 21C18.1999 20.2574 18.4949 19.5451 19.02 19.02C19.5451 18.4949 20.2574 18.1999 21 18.1999C21.7427 18.1999 22.4549 18.4949 22.98 19.02C23.5051 19.5451 23.8001 20.2574 23.8001 21C23.8001 21.7427 23.5051 22.4549 22.98 22.98C22.4549 23.5051 21.7427 23.8001 21 23.8001Z" fill="black"/>
</g>
</svg>
