<svg width="40" height="40" viewBox="0 0 40 40" fill="none" xmlns="http://www.w3.org/2000/svg">
<g id="account_box_24dp_000 1" clip-path="url(#clip0_13_282)">
<g id="Group">
<path id="Vector" d="M31.6667 5H8.33333C6.5 5 5 6.5 5 8.33333V31.6667C5 33.5 6.5 35 8.33333 35H31.6667C33.5 35 35 33.5 35 31.6667V8.33333C35 6.5 33.5 5 31.6667 5ZM20 10C23.2167 10 25.8333 12.6167 25.8333 15.8333C25.8333 19.05 23.2167 21.6667 20 21.6667C16.7833 21.6667 14.1667 19.05 14.1667 15.8333C14.1667 12.6167 16.7833 10 20 10ZM31.6667 31.6667H8.33333V31.2833C8.33333 30.25 8.8 29.2833 9.6 28.65C12.45 26.3667 16.0667 25 20 25C23.9333 25 27.55 26.3667 30.4 28.65C31.2 29.2833 31.6667 30.2667 31.6667 31.2833V31.6667Z" fill="black"/>
</g>
</g>
<defs>
<clipPath id="clip0_13_282">
<rect width="40" height="40" fill="white"/>
</clipPath>
</defs>
</svg>
